<svg width="180" height="180" viewBox="0 0 180 180" fill="none" xmlns="http://www.w3.org/2000/svg">
<rect width="180" height="180" fill="#EEEEEE"/>
<path d="M42.9895 113.491C40.1539 109.379 38.798 104.46 39.1359 99.51V79.3059C38.7782 74.3195 40.1136 69.3571 42.9344 65.19C45.4852 61.9753 49.8434 60.3769 56.0091 60.3949C62.1749 60.4128 66.3496 61.8226 68.5333 64.6243C71.196 68.0961 72.4952 72.3888 72.1942 76.7198V81.461H60.7986V76.3157C60.7832 74.9619 60.6636 73.6111 60.4408 72.2749C60.303 71.3075 59.8492 70.4098 59.1471 69.7157C58.7136 69.3519 58.2104 69.0764 57.6669 68.9053C57.1234 68.7341 56.5504 68.6708 55.9816 68.7189C55.1647 68.5996 54.33 68.7296 53.5912 69.0911C52.8524 69.4526 52.2454 70.0281 51.8527 70.7394C51.129 72.6312 50.8105 74.6485 50.9169 76.6659V102.312C50.7913 104.342 51.1592 106.373 51.9904 108.238C52.3875 108.911 52.9768 109.455 53.6859 109.805C54.395 110.154 55.1929 110.293 55.9816 110.205C56.7566 110.312 57.5464 110.177 58.2384 109.819C58.9304 109.461 59.4892 108.898 59.8352 108.211C60.501 106.316 60.7906 104.313 60.6885 102.312V96.9239H72.0841V101.584C72.4196 105.979 71.2264 110.356 68.6985 114.003C66.2762 116.966 62.0923 118.421 56.1468 118.421C50.2012 118.421 45.5494 116.805 42.9895 113.491Z" fill="#111111"/>
<path d="M87.001 61.579H100.188L111.316 117.237H100.355L98.3794 104.939H89.1431L86.9175 117.157H75.7894L87.001 61.579ZM97.1553 97.9421L93.65 75.573L90.1725 97.9421H97.1553Z" fill="#111111"/>
<path d="M119.079 69.9661H110.132V61.579H139.737V69.9661H130.899V117.237H119.052L119.079 69.9661Z" fill="#111111"/>
</svg>
